<svg width="90" height="90" viewBox="0 0 90 90" fill="none" xmlns="http://www.w3.org/2000/svg">
<g filter="url(#filter0_d_177_178)">
<rect x="20" y="16" width="50" height="50" rx="25" fill="white" fill-opacity="0.5" shape-rendering="crispEdges"/>
</g>
<path d="M45.0004 33.9064C47.5452 31.6216 51.4777 31.6975 53.9293 34.1534C56.3798 36.6104 56.4643 40.5234 54.1849 43.0757L44.9983 52.2754L35.8138 43.0757C33.5344 40.5234 33.62 36.6039 36.0694 34.1534C38.5232 31.7007 42.4481 31.6184 45.0004 33.9064ZM52.3953 35.6841C50.7703 34.057 48.1486 33.9909 46.4478 35.5184L45.0015 36.8162L43.5542 35.5195C41.8479 33.9898 39.2317 34.057 37.6024 35.6863C35.9882 37.3005 35.9069 39.8842 37.3944 41.5916L44.9994 49.2085L52.6044 41.5926C54.0929 39.8842 54.0116 37.3037 52.3953 35.6841Z" fill="#333333"/>
<defs>
<filter id="filter0_d_177_178" x="0" y="0" width="90" height="90" filterUnits="userSpaceOnUse" color-interpolation-filters="sRGB">
<feFlood flood-opacity="0" result="BackgroundImageFix"/>
<feColorMatrix in="SourceAlpha" type="matrix" values="0 0 0 0 0 0 0 0 0 0 0 0 0 0 0 0 0 0 127 0" result="hardAlpha"/>
<feOffset dy="4"/>
<feGaussianBlur stdDeviation="10"/>
<feComposite in2="hardAlpha" operator="out"/>
<feColorMatrix type="matrix" values="0 0 0 0 0.0823529 0 0 0 0 0.0862745 0 0 0 0 0.133333 0 0 0 0.2 0"/>
<feBlend mode="normal" in2="BackgroundImageFix" result="effect1_dropShadow_177_178"/>
<feBlend mode="normal" in="SourceGraphic" in2="effect1_dropShadow_177_178" result="shape"/>
</filter>
</defs>
</svg>
