<svg width="20" height="20" viewBox="0 0 20 20" fill="none" xmlns="http://www.w3.org/2000/svg">
<path d="M17.5004 13.6833C17.5002 13.6833 17.5 13.6835 17.5 13.6838V16.63C17.5001 16.841 17.4202 17.0441 17.2763 17.1985C17.1325 17.3528 16.9355 17.4469 16.725 17.4617C16.3608 17.4867 16.0633 17.5 15.8333 17.5C8.46917 17.5 2.5 11.5308 2.5 4.16667C2.5 3.93667 2.5125 3.63917 2.53833 3.275C2.5531 3.06454 2.64715 2.86751 2.8015 2.72367C2.95585 2.57984 3.15902 2.4999 3.37 2.5H6.31667C6.42003 2.4999 6.51975 2.53822 6.59644 2.60752C6.67313 2.67682 6.72133 2.77215 6.73167 2.875C6.75083 3.06667 6.76833 3.21917 6.785 3.335C6.95061 4.49077 7.29 5.61486 7.79167 6.66917C7.87083 6.83583 7.81917 7.035 7.66917 7.14167L7.18105 7.49045C6.41614 8.03702 6.11879 9.05445 6.61299 9.8542C7.50046 11.2904 8.71079 12.5007 10.147 13.3881C10.9466 13.8821 11.9638 13.585 12.5105 12.8204L12.8575 12.335C12.91 12.2617 12.9865 12.2091 13.0737 12.1864C13.161 12.1637 13.2535 12.1723 13.335 12.2108C14.3892 12.7116 15.513 13.0501 16.6683 13.215C16.7842 13.2317 16.9367 13.25 17.1267 13.2683C17.2294 13.2789 17.3245 13.3271 17.3936 13.4038C17.4627 13.4804 17.5009 13.5798 17.5008 13.6829C17.5008 13.6831 17.5006 13.6833 17.5004 13.6833Z" fill="white"/>
</svg>
