<svg width="20" height="20" viewBox="0 0 20 20" fill="none" xmlns="http://www.w3.org/2000/svg">
<path d="M15.8335 17.5H4.16683C3.94582 17.5 3.73385 17.4122 3.57757 17.2559C3.42129 17.0996 3.3335 16.8877 3.3335 16.6666V9.16664H0.833496L9.43933 1.34331C9.59276 1.20371 9.79273 1.12634 10.0002 1.12634C10.2076 1.12634 10.4076 1.20371 10.561 1.34331L19.1668 9.16664H16.6668V16.6666C16.6668 16.8877 16.579 17.0996 16.4228 17.2559C16.2665 17.4122 16.0545 17.5 15.8335 17.5ZM10.8335 15.8333H15.0002V7.63081L10.0002 3.08581L5.00016 7.63081V15.8333H9.16683V10.8333H10.8335V15.8333Z" fill="#333333"/>
</svg>
