
<svg width="20" height="17" viewBox="0 0 20 17" fill="none" xmlns="http://www.w3.org/2000/svg">
<path d="M15.8333 16.5H4.16665C3.94563 16.5 3.73367 16.4122 3.57739 16.2559C3.42111 16.0996 3.33331 15.8877 3.33331 15.6666V8.16664H0.833313L9.43915 0.343307C9.59257 0.203706 9.79255 0.126343 9.99998 0.126343C10.2074 0.126343 10.4074 0.203706 10.5608 0.343307L19.1666 8.16664H16.6666V15.6666C16.6666 15.8877 16.5789 16.0996 16.4226 16.2559C16.2663 16.4122 16.0543 16.5 15.8333 16.5ZM10.8333 14.8333H15V6.63081L9.99998 2.08581L4.99998 6.63081V14.8333H9.16665V9.83331H10.8333V14.8333Z" fill="#F4683F"/>
</svg>
