<svg width="20" height="20" viewBox="0 0 20 20" fill="none" xmlns="http://www.w3.org/2000/svg">
<path d="M15.8333 17.5H4.16665C3.94563 17.5 3.73367 17.4122 3.57739 17.2559C3.42111 17.0996 3.33331 16.8877 3.33331 16.6666V9.16664H0.833313L9.43915 1.34331C9.59257 1.20371 9.79255 1.12634 9.99998 1.12634C10.2074 1.12634 10.4074 1.20371 10.5608 1.34331L19.1666 9.16664H16.6666V16.6666C16.6666 16.8877 16.5789 17.0996 16.4226 17.2559C16.2663 17.4122 16.0543 17.5 15.8333 17.5ZM10.8333 15.8333H15V7.63081L9.99998 3.08581L4.99998 7.63081V15.8333H9.16665V10.8333H10.8333V15.8333Z" fill="#F4683F"/>
</svg>
