<svg width="29" height="30" viewBox="0 0 29 30" fill="none" xmlns="http://www.w3.org/2000/svg">
<path d="M25.3756 20.525C25.3753 20.525 25.375 20.5253 25.375 20.5256V24.945C25.3751 25.2615 25.2592 25.5662 25.0507 25.7977C24.8421 26.0293 24.5564 26.1703 24.2513 26.1925C23.7232 26.23 23.2918 26.25 22.9583 26.25C12.2803 26.25 3.625 17.2962 3.625 6.25C3.625 5.905 3.64313 5.45875 3.68058 4.9125C3.702 4.5968 3.83837 4.30126 4.06218 4.08551C4.28599 3.86976 4.58058 3.74986 4.8865 3.75H9.15917C9.30905 3.74984 9.45363 3.80732 9.56484 3.91128C9.67604 4.01523 9.74593 4.15823 9.76092 4.3125C9.78871 4.6 9.81408 4.82875 9.83825 5.0025C10.0784 6.73615 10.5705 8.42229 11.2979 10.0038C11.4127 10.2538 11.3378 10.5525 11.1203 10.7125L9.77925 11.7038C9.03983 12.2504 8.75722 13.263 9.19619 14.0862C10.6334 16.7812 12.7797 19.0015 15.385 20.4882C16.1805 20.9422 17.1592 20.65 17.6876 19.8854L18.6434 18.5025C18.7194 18.3925 18.8304 18.3136 18.9569 18.2796C19.0835 18.2455 19.2175 18.2585 19.3358 18.3162C20.8643 19.0673 22.4938 19.5751 24.1691 19.8225C24.337 19.8475 24.5582 19.875 24.8337 19.9025C24.9826 19.9183 25.1205 19.9907 25.2208 20.1057C25.3209 20.2206 25.3762 20.3697 25.3762 20.5244C25.3762 20.5247 25.3759 20.525 25.3756 20.525Z" fill="white"/>
</svg>
