<svg width="30" height="30" viewBox="0 0 30 30" fill="none" xmlns="http://www.w3.org/2000/svg">
<path d="M15.0003 5.66122C17.9365 3.02497 22.474 3.11248 25.3028 5.94622C28.1303 8.78122 28.2278 13.2962 25.5978 16.2412L14.9978 26.8562L4.40028 16.2412C1.77028 13.2962 1.86903 8.77372 4.69528 5.94622C7.52653 3.11623 12.0553 3.02122 15.0003 5.66122ZM23.5328 7.71247C21.6578 5.83498 18.6328 5.75873 16.6703 7.52122L15.0015 9.01872L13.3315 7.52247C11.3628 5.75747 8.34403 5.83497 6.46403 7.71497C4.60153 9.57747 4.50778 12.5587 6.22403 14.5287L14.999 23.3175L23.774 14.53C25.4915 12.5587 25.3978 9.58122 23.5328 7.71247Z" fill="#F4683F"/>
</svg>
