<svg width="22" height="22" viewBox="0 0 22 22" fill="none" xmlns="http://www.w3.org/2000/svg">
<path d="M3.66797 20.1665C3.66797 18.2216 4.44059 16.3563 5.81585 14.9811C7.19112 13.6058 9.05638 12.8332 11.0013 12.8332C12.9462 12.8332 14.8115 13.6058 16.1868 14.9811C17.562 16.3563 18.3346 18.2216 18.3346 20.1665H16.5013C16.5013 18.7078 15.9218 17.3089 14.8904 16.2774C13.8589 15.246 12.46 14.6665 11.0013 14.6665C9.54261 14.6665 8.14366 15.246 7.11221 16.2774C6.08076 17.3089 5.5013 18.7078 5.5013 20.1665H3.66797ZM11.0013 11.9165C7.96255 11.9165 5.5013 9.45525 5.5013 6.4165C5.5013 3.37775 7.96255 0.916504 11.0013 0.916504C14.0401 0.916504 16.5013 3.37775 16.5013 6.4165C16.5013 9.45525 14.0401 11.9165 11.0013 11.9165ZM11.0013 10.0832C13.0271 10.0832 14.668 8.44234 14.668 6.4165C14.668 4.39067 13.0271 2.74984 11.0013 2.74984C8.97547 2.74984 7.33463 4.39067 7.33463 6.4165C7.33463 8.44234 8.97547 10.0832 11.0013 10.0832Z" fill="#F4683F"/>
</svg>
