<svg width="30" height="30" viewBox="0 0 30 30" fill="none" xmlns="http://www.w3.org/2000/svg">
<path d="M22.5407 20.7712L27.8945 26.1237L26.1257 27.8924L20.7732 22.5387C18.7816 24.1352 16.3045 25.0036 13.752 24.9999C7.54195 24.9999 2.50195 19.9599 2.50195 13.7499C2.50195 7.53994 7.54195 2.49994 13.752 2.49994C19.962 2.49994 25.002 7.53994 25.002 13.7499C25.0056 16.3024 24.1372 18.7796 22.5407 20.7712ZM20.0332 19.8437C21.6196 18.2123 22.5055 16.0255 22.502 13.7499C22.502 8.91494 18.5857 4.99994 13.752 4.99994C8.91695 4.99994 5.00195 8.91494 5.00195 13.7499C5.00195 18.5837 8.91695 22.4999 13.752 22.4999C16.0275 22.5035 18.2143 21.6176 19.8457 20.0312L20.0332 19.8437Z" fill="white"/>
</svg>
