<svg width="20" height="20" viewBox="0 0 20 20" fill="none" xmlns="http://www.w3.org/2000/svg">
<path d="M3.33329 5.11916V15.8058L7.55413 13.9975L12.5541 16.4975L16.6666 14.7333V4.04749L17.7525 3.58249C17.8159 3.55531 17.885 3.5443 17.9537 3.55044C18.0224 3.55659 18.0886 3.5797 18.1461 3.61769C18.2037 3.65569 18.251 3.70739 18.2836 3.76816C18.3163 3.82892 18.3334 3.89684 18.3333 3.96582V15.8333L12.5 18.3333L7.49996 15.8333L2.24746 18.0842C2.18405 18.1113 2.11489 18.1223 2.04618 18.1162C1.97747 18.1101 1.91136 18.0869 1.85378 18.0489C1.79621 18.0109 1.74896 17.9592 1.7163 17.8985C1.68363 17.8377 1.66656 17.7698 1.66663 17.7008V5.83332L3.33329 5.11916ZM13.5358 9.36915L9.99996 12.9042L6.46413 9.36915C5.76495 8.66986 5.28883 7.77894 5.09597 6.80906C4.90311 5.83918 5.00218 4.83389 5.38064 3.92031C5.75911 3.00673 6.39997 2.22589 7.2222 1.67652C8.04442 1.12715 9.01109 0.833923 9.99996 0.833923C10.9888 0.833923 11.9555 1.12715 12.7777 1.67652C13.5999 2.22589 14.2408 3.00673 14.6193 3.92031C14.9977 4.83389 15.0968 5.83918 14.9039 6.80906C14.7111 7.77894 14.235 8.66986 13.5358 9.36915ZM9.99996 10.5475L12.3566 8.18999C12.8229 7.72385 13.1405 7.12991 13.2692 6.48328C13.3979 5.83665 13.3319 5.16638 13.0797 4.55723C12.8274 3.94809 12.4002 3.42743 11.852 3.06112C11.3038 2.6948 10.6593 2.49928 9.99996 2.49928C9.34065 2.49928 8.69614 2.6948 8.14795 3.06112C7.59977 3.42743 7.17253 3.94809 6.92026 4.55723C6.668 5.16638 6.60205 5.83665 6.73075 6.48328C6.85945 7.12991 7.17702 7.72385 7.64329 8.18999L9.99996 10.5475Z" fill="#333333"/>
</svg>
