<svg width="24" height="24" viewBox="0 0 24 24" fill="none" xmlns="http://www.w3.org/2000/svg">
<path d="M18.0326 16.617L22.3156 20.899L20.9006 22.314L16.6186 18.031C15.0253 19.3082 13.0436 20.0029 11.0016 20C6.03359 20 2.00159 15.968 2.00159 11C2.00159 6.03195 6.03359 1.99995 11.0016 1.99995C15.9696 1.99995 20.0016 6.03195 20.0016 11C20.0045 13.042 19.3098 15.0237 18.0326 16.617ZM16.0266 15.875C17.2957 14.5698 18.0045 12.8204 18.0016 11C18.0016 7.13195 14.8686 3.99995 11.0016 3.99995C7.13359 3.99995 4.00159 7.13195 4.00159 11C4.00159 14.867 7.13359 18 11.0016 18C12.822 18.0028 14.5715 17.2941 15.8766 16.025L16.0266 15.875Z" fill="#333333"/>
</svg>
