<svg width="20" height="20" viewBox="0 0 20 20" fill="none" xmlns="http://www.w3.org/2000/svg">
<path d="M10.0003 3.77415C11.9578 2.01665 14.9828 2.07498 16.8686 3.96415C18.7536 5.85415 18.8186 8.86415 17.0653 10.8275L9.99864 17.9042L2.93364 10.8275C1.18031 8.86415 1.24614 5.84915 3.13031 3.96415C5.01781 2.07748 8.03698 2.01415 10.0003 3.77415ZM15.6886 5.14165C14.4386 3.88998 12.422 3.83915 11.1136 5.01415L10.0011 6.01248L8.88781 5.01498C7.57531 3.83832 5.56281 3.88998 4.30948 5.14332C3.06781 6.38498 3.00531 8.37248 4.14948 9.68582L9.99948 15.545L15.8495 9.68665C16.9945 8.37248 16.932 6.38748 15.6886 5.14165Z" fill="#333333"/>
</svg>
