<svg width="30" height="30" viewBox="0 0 30 30" fill="none" xmlns="http://www.w3.org/2000/svg">
<path d="M16.3993 21.2787L11.1505 18.4162C10.4653 19.1487 9.57551 19.6583 8.59687 19.8785C7.61823 20.0988 6.59597 20.0196 5.66293 19.6512C4.7299 19.2829 3.92923 18.6424 3.36499 17.813C2.80075 16.9836 2.49902 16.0037 2.49902 15.0005C2.49902 13.9974 2.80075 13.0175 3.36499 12.1881C3.92923 11.3587 4.7299 10.7182 5.66293 10.3499C6.59597 9.98151 7.61823 9.90231 8.59687 10.1226C9.57551 10.3428 10.4653 10.8523 11.1505 11.5849L16.4005 8.72242C16.1025 7.54251 16.245 6.2944 16.8013 5.21205C17.3577 4.12969 18.2897 3.28739 19.4226 2.84305C20.5556 2.3987 21.8117 2.3828 22.9555 2.79834C24.0993 3.21387 25.0524 4.03231 25.6359 5.10025C26.2195 6.16818 26.3935 7.41228 26.1254 8.59935C25.8573 9.78642 25.1655 10.835 24.1796 11.5484C23.1937 12.2619 21.9814 12.5913 20.77 12.4749C19.5586 12.3585 18.4313 11.8043 17.5993 10.9162L12.3493 13.7787C12.5508 14.5804 12.5508 15.4195 12.3493 16.2212L17.598 19.0837C18.43 18.1955 19.5574 17.6413 20.7688 17.5249C21.9802 17.4085 23.1924 17.7379 24.1783 18.4514C25.1642 19.1649 25.8561 20.2134 26.1242 21.4005C26.3923 22.5876 26.2182 23.8317 25.6347 24.8996C25.0511 25.9675 24.0981 26.786 22.9543 27.2015C21.8104 27.617 20.5543 27.6011 19.4214 27.1568C18.2884 26.7124 17.3564 25.8701 16.8001 24.7878C16.2437 23.7054 16.1012 22.4573 16.3993 21.2774V21.2787ZM7.49928 17.4999C8.16232 17.4999 8.79821 17.2365 9.26705 16.7677C9.73589 16.2988 9.99928 15.663 9.99928 14.9999C9.99928 14.3369 9.73589 13.701 9.26705 13.2322C8.79821 12.7633 8.16232 12.4999 7.49928 12.4999C6.83624 12.4999 6.20035 12.7633 5.73151 13.2322C5.26267 13.701 4.99928 14.3369 4.99928 14.9999C4.99928 15.663 5.26267 16.2988 5.73151 16.7677C6.20035 17.2365 6.83624 17.4999 7.49928 17.4999ZM21.2493 9.99992C21.9123 9.99992 22.5482 9.73653 23.017 9.26769C23.4859 8.79884 23.7493 8.16296 23.7493 7.49992C23.7493 6.83688 23.4859 6.20099 23.017 5.73215C22.5482 5.26331 21.9123 4.99992 21.2493 4.99992C20.5862 4.99992 19.9504 5.26331 19.4815 5.73215C19.0127 6.20099 18.7493 6.83688 18.7493 7.49992C18.7493 8.16296 19.0127 8.79884 19.4815 9.26769C19.9504 9.73653 20.5862 9.99992 21.2493 9.99992ZM21.2493 24.9999C21.9123 24.9999 22.5482 24.7365 23.017 24.2677C23.4859 23.7988 23.7493 23.163 23.7493 22.4999C23.7493 21.8369 23.4859 21.201 23.017 20.7322C22.5482 20.2633 21.9123 19.9999 21.2493 19.9999C20.5862 19.9999 19.9504 20.2633 19.4815 20.7322C19.0127 21.201 18.7493 21.8369 18.7493 22.4999C18.7493 23.163 19.0127 23.7988 19.4815 24.2677C19.9504 24.7365 20.5862 24.9999 21.2493 24.9999Z" fill="#F4683F"/>
</svg>
