<svg width="27" height="26" viewBox="0 0 27 26" fill="none" xmlns="http://www.w3.org/2000/svg">
<g clip-path="url(#clip0_2_206)">
<path d="M13.3799 9.83072C12.5394 9.83072 11.7334 10.1646 11.139 10.7589C10.5447 11.3532 10.2108 12.1593 10.2108 12.9998C10.2108 13.8403 10.5447 14.6463 11.139 15.2406C11.7334 15.8349 12.5394 16.1688 13.3799 16.1688C14.2204 16.1688 15.0264 15.8349 15.6208 15.2406C16.2151 14.6463 16.5489 13.8403 16.5489 12.9998C16.5489 12.1593 16.2151 11.3532 15.6208 10.7589C15.0264 10.1646 14.2204 9.83072 13.3799 9.83072ZM13.3799 7.71803C14.7807 7.71803 16.1241 8.27449 17.1147 9.26501C18.1052 10.2555 18.6616 11.599 18.6616 12.9998C18.6616 14.4006 18.1052 15.744 17.1147 16.7345C16.1241 17.725 14.7807 18.2815 13.3799 18.2815C11.9791 18.2815 10.6357 17.725 9.64514 16.7345C8.65462 15.744 8.09815 14.4006 8.09815 12.9998C8.09815 11.599 8.65462 10.2555 9.64514 9.26501C10.6357 8.27449 11.9791 7.71803 13.3799 7.71803ZM20.2462 7.45394C20.2462 7.80414 20.107 8.14 19.8594 8.38763C19.6118 8.63526 19.2759 8.77437 18.9257 8.77437C18.5755 8.77437 18.2397 8.63526 17.992 8.38763C17.7444 8.14 17.6053 7.80414 17.6053 7.45394C17.6053 7.10374 17.7444 6.76788 17.992 6.52025C18.2397 6.27262 18.5755 6.1335 18.9257 6.1335C19.2759 6.1335 19.6118 6.27262 19.8594 6.52025C20.107 6.76788 20.2462 7.10374 20.2462 7.45394ZM13.3799 4.54898C10.7665 4.54898 10.3397 4.55637 9.12387 4.61025C8.29569 4.64933 7.74005 4.76025 7.22455 4.96095C6.7661 5.13842 6.43546 5.35075 6.08369 5.70357C5.75306 6.02301 5.49885 6.41299 5.34002 6.84442C5.13932 7.36204 5.0284 7.91662 4.99037 8.74374C4.93544 9.90995 4.9291 10.3177 4.9291 12.9998C4.9291 15.6132 4.9365 16.0399 4.99037 17.2558C5.02946 18.0829 5.14037 18.6396 5.34002 19.1541C5.5196 19.6136 5.73087 19.9442 6.08158 20.2949C6.43757 20.6499 6.76821 20.8622 7.22244 21.0375C7.74427 21.2393 8.29991 21.3513 9.12387 21.3893C10.2901 21.4442 10.6978 21.4506 13.3799 21.4506C15.9933 21.4506 16.4201 21.4432 17.6359 21.3893C18.462 21.3502 19.0187 21.2393 19.5342 21.0396C19.9916 20.8611 20.3243 20.6488 20.675 20.2981C21.031 19.9421 21.2434 19.6115 21.4187 19.1572C21.6194 18.6364 21.7314 18.0798 21.7694 17.2558C21.8244 16.0896 21.8307 15.6818 21.8307 12.9998C21.8307 10.3864 21.8233 9.9596 21.7694 8.74374C21.7303 7.91768 21.6194 7.35992 21.4187 6.84442C21.2595 6.41344 21.0058 6.0236 20.6761 5.70357C20.3568 5.37277 19.9668 5.11853 19.5352 4.9599C19.0176 4.75919 18.462 4.64827 17.6359 4.61025C16.4697 4.55532 16.062 4.54898 13.3799 4.54898ZM13.3799 2.43628C16.25 2.43628 16.6081 2.44684 17.7342 2.49966C18.8592 2.55248 19.625 2.72889 20.299 2.99086C20.9962 3.25918 21.5835 3.62256 22.1708 4.20883C22.708 4.7369 23.1236 5.37566 23.3888 6.08068C23.6497 6.75358 23.8272 7.52049 23.88 8.6455C23.9297 9.77157 23.9434 10.1297 23.9434 12.9998C23.9434 15.8699 23.9328 16.228 23.88 17.354C23.8272 18.4791 23.6497 19.2449 23.3888 19.9189C23.1244 20.6243 22.7086 21.2632 22.1708 21.7907C21.6426 22.3277 21.0039 22.7433 20.299 23.0087C19.6261 23.2696 18.8592 23.4471 17.7342 23.4999C16.6081 23.5495 16.25 23.5633 13.3799 23.5633C10.5098 23.5633 10.1517 23.5527 9.02563 23.4999C7.90061 23.4471 7.13476 23.2696 6.46081 23.0087C5.75551 22.744 5.11664 22.3283 4.58896 21.7907C4.05171 21.2627 3.63606 20.6239 3.37099 19.9189C3.10902 19.246 2.9326 18.4791 2.87979 17.354C2.83014 16.228 2.81641 15.8699 2.81641 12.9998C2.81641 10.1297 2.82697 9.77157 2.87979 8.6455C2.9326 7.51943 3.10902 6.75463 3.37099 6.08068C3.63533 5.37523 4.05107 4.73629 4.58896 4.20883C5.11679 3.6714 5.75562 3.25572 6.46081 2.99086C7.13476 2.72889 7.89956 2.55248 9.02563 2.49966C10.1517 2.45001 10.5098 2.43628 13.3799 2.43628Z" fill="#C0C2D7"/>
</g>
<defs>
<clipPath id="clip0_2_206">
<rect width="25.3524" height="25.3524" fill="white" transform="translate(0.705078 0.32373)"/>
</clipPath>
</defs>
</svg>
