<svg width="18" height="19" viewBox="0 0 18 19" fill="none" xmlns="http://www.w3.org/2000/svg">
<path d="M2.33329 5.11916V15.8058L6.55413 13.9975L11.5541 16.4975L15.6666 14.7333V4.04749L16.7525 3.58249C16.8159 3.55531 16.885 3.5443 16.9537 3.55044C17.0224 3.55659 17.0886 3.5797 17.1461 3.61769C17.2037 3.65569 17.251 3.70739 17.2836 3.76816C17.3163 3.82892 17.3334 3.89684 17.3333 3.96582V15.8333L11.5 18.3333L6.49996 15.8333L1.24746 18.0842C1.18405 18.1113 1.11489 18.1223 1.04618 18.1162C0.977469 18.1101 0.911359 18.0869 0.853782 18.0489C0.796205 18.0109 0.748964 17.9592 0.716298 17.8985C0.683633 17.8377 0.666565 17.7698 0.666626 17.7008V5.83332L2.33329 5.11916ZM12.5358 9.36915L8.99996 12.9042L5.46413 9.36915C4.76495 8.66986 4.28883 7.77894 4.09597 6.80906C3.90311 5.83918 4.00218 4.83389 4.38064 3.92031C4.75911 3.00673 5.39997 2.22589 6.2222 1.67652C7.04442 1.12715 8.01109 0.833923 8.99996 0.833923C9.98883 0.833923 10.9555 1.12715 11.7777 1.67652C12.5999 2.22589 13.2408 3.00673 13.6193 3.92031C13.9977 4.83389 14.0968 5.83918 13.9039 6.80906C13.7111 7.77894 13.235 8.66986 12.5358 9.36915ZM8.99996 10.5475L11.3566 8.18999C11.8229 7.72385 12.1405 7.12991 12.2692 6.48328C12.3979 5.83665 12.3319 5.16638 12.0797 4.55723C11.8274 3.94809 11.4002 3.42743 10.852 3.06112C10.3038 2.6948 9.65927 2.49928 8.99996 2.49928C8.34065 2.49928 7.69614 2.6948 7.14795 3.06112C6.59977 3.42743 6.17253 3.94809 5.92026 4.55723C5.668 5.16638 5.60205 5.83665 5.73075 6.48328C5.85945 7.12991 6.17702 7.72385 6.64329 8.18999L8.99996 10.5475Z" fill="#333333"/>
</svg>
