<svg width="20" height="20" viewBox="0 0 20 20" fill="none" xmlns="http://www.w3.org/2000/svg">
<path d="M3.33317 5.11922V15.8059L7.554 13.9975L12.554 16.4975L16.6665 14.7334V4.04755L17.7523 3.58255C17.8157 3.55537 17.8849 3.54436 17.9536 3.5505C18.0223 3.55665 18.0884 3.57976 18.146 3.61776C18.2036 3.65575 18.2508 3.70745 18.2835 3.76822C18.3162 3.82898 18.3332 3.8969 18.3332 3.96588V15.8334L12.4998 18.3334L7.49984 15.8334L2.24734 18.0842C2.18393 18.1114 2.11477 18.1224 2.04606 18.1163C1.97735 18.1101 1.91124 18.087 1.85366 18.049C1.79608 18.011 1.74884 17.9593 1.71618 17.8985C1.68351 17.8378 1.66644 17.7699 1.6665 17.7009V5.83338L3.33317 5.11922ZM13.5357 9.36922L9.99984 12.9042L6.464 9.36922C5.76483 8.66992 5.28871 7.779 5.09585 6.80912C4.90299 5.83924 5.00206 4.83395 5.38052 3.92037C5.75898 3.00679 6.39985 2.22595 7.22207 1.67658C8.0443 1.12721 9.01097 0.833984 9.99984 0.833984C10.9887 0.833984 11.9554 1.12721 12.7776 1.67658C13.5998 2.22595 14.2407 3.00679 14.6192 3.92037C14.9976 4.83395 15.0967 5.83924 14.9038 6.80912C14.711 7.779 14.2348 8.66992 13.5357 9.36922ZM9.99984 10.5475L12.3565 8.19005C12.8228 7.72391 13.1403 7.12997 13.269 6.48334C13.3977 5.83671 13.3318 5.16644 13.0795 4.55729C12.8273 3.94815 12.4 3.42749 11.8518 3.06118C11.3037 2.69486 10.6592 2.49934 9.99984 2.49934C9.34052 2.49934 8.69602 2.69486 8.14783 3.06118C7.59965 3.42749 7.1724 3.94815 6.92014 4.55729C6.66788 5.16644 6.60193 5.83671 6.73063 6.48334C6.85933 7.12997 7.17689 7.72391 7.64317 8.19005L9.99984 10.5475Z" fill="#F4683F"/>
</svg>
