<svg width="40" height="40" viewBox="0 0 40 40" fill="none" xmlns="http://www.w3.org/2000/svg">
<path d="M36.6673 28.3366C36.6666 30.6159 35.8875 32.8265 34.459 34.6026C33.0306 36.3787 31.0384 37.6138 28.8123 38.1033L27.749 34.9133C28.7227 34.7529 29.6487 34.3785 30.4603 33.8171C31.2719 33.2556 31.9488 32.5212 32.4423 31.6666H28.334C27.4499 31.6666 26.6021 31.3154 25.977 30.6903C25.3518 30.0652 25.0007 29.2173 25.0007 28.3333V21.6666C25.0007 20.7825 25.3518 19.9347 25.977 19.3096C26.6021 18.6844 27.4499 18.3333 28.334 18.3333H33.2307C32.8239 15.1114 31.2555 12.1487 28.8197 10.001C26.3839 7.85338 23.2481 6.66838 20.0007 6.66838C16.7532 6.66838 13.6174 7.85338 11.1816 10.001C8.74578 12.1487 7.17737 15.1114 6.77065 18.3333H11.6673C12.5514 18.3333 13.3992 18.6844 14.0243 19.3096C14.6495 19.9347 15.0007 20.7825 15.0007 21.6666V28.3333C15.0007 29.2173 14.6495 30.0652 14.0243 30.6903C13.3992 31.3154 12.5514 31.6666 11.6673 31.6666H6.66732C5.78326 31.6666 4.93542 31.3154 4.31029 30.6903C3.68517 30.0652 3.33398 29.2173 3.33398 28.3333V19.9999C3.33398 10.7949 10.7957 3.33325 20.0007 3.33325C29.2057 3.33325 36.6673 10.7949 36.6673 19.9999V28.3366ZM33.334 28.3333V21.6666H28.334V28.3333H33.334ZM6.66732 21.6666V28.3333H11.6673V21.6666H6.66732Z" fill="#F4683F"/>
</svg>
