<svg width="28" height="28" viewBox="0 0 28 28" fill="none" xmlns="http://www.w3.org/2000/svg">
<rect width="28" height="28" rx="14" fill="#C0C2D7"/>
<path d="M14 18.6668C14.552 18.6668 15 19.1148 15 19.6668C15 20.2188 14.552 20.6668 14 20.6668C13.448 20.6668 13 20.2188 13 19.6668C13 19.1148 13.448 18.6668 14 18.6668ZM14 7.3335C16.2093 7.3335 18 9.12416 18 11.3335C18 12.7768 17.498 13.5268 16.2173 14.6155C14.9327 15.7068 14.6667 16.1982 14.6667 17.3335H13.3333C13.3333 15.6842 13.858 14.8702 15.354 13.5995C16.3653 12.7402 16.6667 12.2895 16.6667 11.3335C16.6667 9.86016 15.4733 8.66683 14 8.66683C12.5267 8.66683 11.3333 9.86016 11.3333 11.3335V12.0002H10V11.3335C10 9.12416 11.7907 7.3335 14 7.3335Z" fill="white"/>
</svg>
