<svg width="40" height="40" viewBox="0 0 40 40" fill="none" xmlns="http://www.w3.org/2000/svg">
<path d="M29.7343 26.0984L30.0277 26.3934L30.3243 26.0984C30.6726 25.7502 31.086 25.474 31.5409 25.2855C31.9959 25.0971 32.4836 25.0001 32.976 25.0001C33.4685 25.0001 33.9561 25.0971 34.4111 25.2855C34.8661 25.474 35.2795 25.7502 35.6277 26.0984C35.9759 26.4466 36.2521 26.86 36.4406 27.315C36.629 27.77 36.726 28.2576 36.726 28.7501C36.726 29.2425 36.629 29.7302 36.4406 30.1852C36.2521 30.6401 35.9759 31.0535 35.6277 31.4017L30.0277 37.0001L24.431 31.4017C23.7278 30.6985 23.3327 29.7446 23.3327 28.7501C23.3327 27.7555 23.7278 26.8017 24.431 26.0984C25.1343 25.3951 26.0881 25.0001 27.0827 25.0001C28.0772 25.0001 29.0311 25.3951 29.7343 26.0984ZM19.9993 23.3334V26.6667C17.3472 26.6667 14.8036 27.7203 12.9283 29.5957C11.0529 31.471 9.99935 34.0146 9.99935 36.6667H6.66602C6.66606 33.2027 8.01424 29.8747 10.4251 27.3872C12.836 24.8998 16.1203 23.4483 19.5827 23.3401L19.9993 23.3334ZM19.9993 1.66675C25.5243 1.66675 29.9993 6.14175 29.9993 11.6667C30.0003 14.2543 28.9978 16.7414 27.2028 18.6051C25.4078 20.4688 22.9601 21.5639 20.3743 21.6601L19.9993 21.6667C14.4743 21.6667 9.99935 17.1917 9.99935 11.6667C9.99842 9.0792 11.0009 6.59209 12.7959 4.7284C14.5909 2.8647 17.0386 1.76962 19.6243 1.67341L19.9993 1.66675ZM19.9993 5.00008C16.316 5.00008 13.3327 7.98341 13.3327 11.6667C13.3327 15.3501 16.316 18.3334 19.9993 18.3334C23.6827 18.3334 26.666 15.3501 26.666 11.6667C26.666 7.98341 23.6827 5.00008 19.9993 5.00008Z" fill="#F4683F"/>
</svg>
