<svg width="20" height="18" viewBox="0 0 20 18" fill="none" xmlns="http://www.w3.org/2000/svg">
<path fill-rule="evenodd" clip-rule="evenodd" d="M18.9264 0.0563435C18.819 0.0867752 16.8059 0.899021 14.4529 1.86139C12.0998 2.82371 8.05605 4.47746 5.46665 5.53633C2.87726 6.59525 0.660911 7.51268 0.541434 7.57509C0.303886 7.69918 0.0520766 7.95991 0.0130061 8.12221C-0.0516945 8.39109 0.129788 8.73346 0.45083 8.94815C0.667397 9.09297 5.01207 10.6423 5.12194 10.6138C5.15796 10.6045 7.74059 8.90635 10.8611 6.84017C13.9816 4.77399 16.5835 3.06574 16.6432 3.04407C16.794 2.98928 16.996 3.01722 17.0456 3.09976C17.157 3.28536 17.3657 3.08118 10.2242 9.7729C8.01846 11.8397 7.85925 11.9977 7.92067 12.0594C7.957 12.0958 9.60421 13.4154 11.5812 14.9918C14.2652 17.132 15.2252 17.876 15.371 17.9288C15.6547 18.0314 15.9917 18.0225 16.2306 17.906C16.4153 17.8159 16.6997 17.5401 16.7908 17.3625C16.835 17.2765 20.0014 0.683147 20 0.545328C19.9982 0.373575 19.8567 0.133136 19.7167 0.0638394C19.5506 -0.0182896 19.2016 -0.0215894 18.9264 0.0563435Z" fill="#C0C2D7"/>
</svg>
