<svg width="24" height="23" viewBox="0 0 24 23" fill="none" xmlns="http://www.w3.org/2000/svg">
<path fill-rule="evenodd" clip-rule="evenodd" d="M11.0728 0.0686301C5.75576 0.721674 1.57694 4.96027 1.02667 10.2586C0.945135 11.0438 0.994522 12.5306 1.12714 13.281C1.33705 14.4693 1.6844 15.5148 2.22429 16.5831L2.49555 17.12L1.68725 20.0541C1.24267 21.6679 0.886043 22.9935 0.894685 22.9999C0.903375 23.0062 2.2574 22.6578 3.90365 22.2256C6.30023 21.5963 6.92088 21.4488 7.01753 21.4854C7.08391 21.5105 7.39892 21.6486 7.71755 21.7922C8.75241 22.2586 9.83918 22.5679 10.9827 22.7216C11.7775 22.8284 13.1722 22.8278 13.9453 22.7202C16.4828 22.3672 18.7499 21.2521 20.5367 19.4779C21.4711 18.5502 22.0924 17.7016 22.684 16.5454C23.2167 15.5042 23.5926 14.3691 23.8026 13.1672C23.9253 12.4648 23.9251 10.4006 23.8023 9.66448C23.5946 8.42082 23.2742 7.4272 22.7266 6.32969C21.1684 3.20645 18.2908 0.98006 14.8502 0.235658C13.7777 0.00361363 12.1782 -0.0671128 11.0728 0.0686301ZM14.0901 2.05454C15.475 2.30908 16.6234 2.7689 17.7592 3.52362C19.6983 4.81215 21.1257 6.81302 21.6899 9.03347C22.1043 10.6641 22.0717 12.5162 21.6011 14.0842C20.8402 16.6194 19.0267 18.7534 16.6534 19.9061C15.2737 20.5762 13.997 20.8684 12.4487 20.8684C10.6741 20.8684 9.10102 20.4405 7.49552 19.5208L7.22517 19.366L5.44842 19.83C4.4712 20.0852 3.66425 20.2866 3.65517 20.2776C3.64609 20.2686 3.84659 19.5086 4.10072 18.5887C4.3548 17.6689 4.56457 16.8824 4.56684 16.8411C4.5691 16.7997 4.44416 16.5608 4.28919 16.3101C2.01235 12.6271 2.6091 7.77003 5.71583 4.69828C7.26123 3.17028 9.21771 2.23126 11.4107 1.96495C12.0031 1.89303 13.48 1.9424 14.0901 2.05454ZM7.94189 6.24121C7.6627 6.37859 7.15256 6.97741 6.93927 7.41813C6.52032 8.28383 6.52887 9.3751 6.96249 10.3856C7.49537 11.6273 8.88962 13.3904 10.266 14.5629C11.2308 15.3847 12.0369 15.8663 13.2211 16.3283C14.4309 16.8002 14.663 16.8545 15.466 16.8542C16.0976 16.854 16.1979 16.842 16.4915 16.732C16.9744 16.5512 17.3348 16.3235 17.6938 15.9722C17.9724 15.6996 18.0285 15.6143 18.1197 15.3244C18.2334 14.963 18.2984 14.3813 18.2476 14.1799C18.221 14.0746 18.0846 13.9892 17.3987 13.6479C16.142 13.0225 15.6355 12.8073 15.4203 12.8073C15.2439 12.8073 15.2138 12.8288 15.0006 13.1072C14.5131 13.7436 14.0658 14.2365 13.9493 14.2655C13.8097 14.3003 13.5355 14.2005 12.902 13.8843C11.8764 13.3724 11.0397 12.6878 10.3203 11.7721C9.92878 11.2738 9.57621 10.7059 9.57621 10.5736C9.57621 10.5169 9.75774 10.2352 9.97962 9.94758C10.4144 9.38383 10.5418 9.17348 10.5418 9.01864C10.5418 8.96432 10.4475 8.69874 10.3322 8.4285C10.217 8.15821 9.98459 7.60243 9.81577 7.19338C9.60648 6.68639 9.45958 6.39999 9.35424 6.2937L9.19965 6.13776L8.67585 6.13781C8.23677 6.13781 8.11805 6.15456 7.94189 6.24121Z" fill="#C0C2D7"/>
</svg>
